<svg xmlns="http://www.w3.org/2000/svg" width="256" height="256"><path fill-opacity=".016" d="M0 128.004v128.004l128.25-.254 128.25-.254.254-127.75L257.008 0H0v128.004m.485.496c0 70.4.119 99.053.265 63.672.146-35.38.146-92.98 0-128C.604 29.153.485 58.1.485 128.5" fill="#1976D2" fill-rule="evenodd"/><path fill-opacity=".207" d="M69 67.893c0 40.926.171 45.959 1.582 46.5 2.066.793 103.77.793 105.836 0 1.411-.541 1.582-5.574 1.582-46.5V22H69v45.893m3.484.107.016 43.5h102l.016-43.25.016-43.25-.277 43-.276 43H73.021l-.277-43.25-.277-43.25.017 43.5m47.909-30.59C109.485 40.057 104 45.702 104 54.28c0 9.673 4.704 13.784 25.5 22.289 6.6 2.699 13.35 6.113 15 7.587 2.773 2.477 2.912 2.914 1.834 5.769-.641 1.699-.766 2.842-.277 2.54.489-.302 1.394-2.425 2.011-4.718 1.91-7.092.063-10.812-10.701-21.56-5.19-5.181-10.168-10.83-11.063-12.553-2.354-4.534-2.105-11.059.559-14.663 2.577-3.485 2.015-3.621-6.47-1.561m15.168.391c4.65 2.947 10.215 9.949 13.823 17.393l3.245 6.693 1.24-7.693c.682-4.232 1.479-9.092 1.77-10.801.526-3.086.486-3.118-5.804-4.659-3.484-.854-8.81-1.85-11.835-2.213l-5.5-.661 3.061 1.941m-35.14 38.772c-.893 2.16-3.098 7.133-4.899 11.051l-3.275 7.123 3.602 1.718c8.505 4.056 26.943 5.699 37.352 3.328l5.299-1.207-6-.627c-3.3-.345-7.35-1.331-9-2.192-4.98-2.599-11.949-9.31-16.055-15.461-2.133-3.193-4.219-6.223-4.638-6.733-.419-.51-1.492.84-2.386 3M204 127.5c-3.025.702-4.682 1.326-3.683 1.388 1.239.076 1.654.669 1.304 1.862-.283.963-.816 3.451-1.185 5.53-.587 3.315-.932 3.691-2.803 3.052-5.477-1.872-10.836.746-13.835 6.756-5.113 10.25 1.994 19.296 9.851 12.537l2.761-2.374 1.867 2.374c1.17 1.487 2.912 2.375 4.661 2.375 2.905 0 8.062-3.344 8.062-5.228 0-.595-.9-.267-2 .728-2.681 2.426-2.643 1.851 1-15.337 1.65-7.784 3-14.38 3-14.658 0-.748-2.832-.435-9 .995m-152 .431c-7.562 1.515-11.299 6.52-9.004 12.06 1.426 3.443 5.137 5.972 13.163 8.97 7.264 2.714 8.752 4.375 6.324 7.058-3.829 4.231-11.393 1.719-16.583-5.509-1.781-2.48-3.5-4.502-3.82-4.493-1.009.03-5.3 10.817-4.694 11.799 1.666 2.696 17.76 4.207 21.93 2.059 8.6-4.43 8.768-8.685.684-17.375-4.618-4.964-6-7.154-6-9.506 0-6.433 6.421-4.115 10.383 3.749 1.164 2.311 2.395 4.214 2.734 4.229.918.042 2.835-10.362 2.054-11.141-.633-.631-11.887-2.963-13.105-2.716-.311.063-2.141.431-4.066.816m24.484 1.452c-.901 1.376-1.491 3.54-1.311 4.809.279 1.967.912 2.308 4.289 2.308 3.278 0 4.227-.473 5.5-2.741 1.991-3.548.509-6.142-3.751-6.568-2.386-.238-3.46.26-4.727 2.192m95.589.252c-2.371 3.014-2.576 4.462-.873 6.165 3.084 3.084 9.8.049 9.8-4.429 0-4.791-5.659-5.891-8.927-1.736m-76.817 9.329c-4.267 1.027-6.256 2.777-6.256 5.503 0 2.887 2.251 4.843 9.277 8.06 5.872 2.688 7.236 4.858 3.749 5.965-2.801.889-8.749-2.215-10.757-5.613-1.435-2.43-3.269-3.833-3.269-2.501 0 .208-.688 2.025-1.53 4.039l-1.529 3.66 3.497 1.462c1.924.803 5.783 1.461 8.575 1.461 4.058 0 5.571-.493 7.532-2.455 1.35-1.35 2.455-2.874 2.455-3.387 0-.514-1.575-3.223-3.5-6.022-3.525-5.124-4.658-9.518-2.214-8.58.707.272 2.128 2.058 3.157 3.969 1.03 1.911 2.202 3.475 2.605 3.475.936 0 1.896-7.29 1.071-8.133-1.093-1.118-9.514-1.709-12.863-.903m25.485.467c-4.633 1.651-6.459 3.123-8.307 6.697-4.02 7.774.823 14.872 10.148 14.872 3.791 0 10.418-3.331 10.418-5.237 0-.59-.787-.363-1.75.504-2.829 2.549-6.731 3.109-8.606 1.234-2.897-2.896-2.023-4.984 2.606-6.228 2.338-.628 5.262-2.089 6.5-3.246 2.464-2.305 2.967-6.213 1-7.774-2.254-1.789-8.163-2.193-12.009-.822m-46.675.306c-2.195.267-2.975.701-2.162 1.204 1.03.636 1.029 2.235-.005 8.385-1.179 7.021-1.136 7.755.567 9.637C73.48 160.083 75.53 161 77.02 161c2.839 0 7.98-3.368 7.98-5.228 0-.595-.9-.267-2 .728-1.934 1.75-1.999 1.747-1.964-.095.019-1.048.687-4.605 1.484-7.905 2.154-8.92 2.039-9.528-1.77-9.34a113.92 113.92 0 0 0-6.684.577m49.423.53c-.24.678-.85 3.145-1.356 5.483-.719 3.321-.631 4.25.402 4.25 2.352 0 4.465-3.059 4.465-6.464 0-3.332-2.626-5.777-3.511-3.269m16.577-.53c-1.925.234-2.926.732-2.277 1.133.637.394 1.424 4.071 1.748 8.173 1.02 12.904.575 12.247 7.978 11.775 5.076-.323 6.978-.923 9.082-2.863 3.627-3.346 5.403-7.923 5.403-13.923 0-5.014-.012-5.032-3.25-5.017-5.683.027-6.366 1.143-3.905 6.379 2.818 5.994 2.795 10.044-.068 12.049-3.26 2.284-3.777 1.97-3.777-2.296 0-2.12-.289-6.62-.642-10-.714-6.824-.326-6.62-10.292-5.41m30 0c-1.889.23-2.935.726-2.325 1.103.804.497.726 2.477-.28 7.173-.765 3.568-1.407 7.05-1.426 7.737-.058 2.075 3.805 5.25 6.388 5.25 2.449 0 9.13-4.78 8.109-5.801-.304-.304-1.186.313-1.961 1.372-2.333 3.191-2.696 1.105-1.073-6.174l2.038-9.147c.537-2.407-.605-2.59-9.47-1.513m24.347 5.818c-1.788 4.278-2.298 10.23-.913 10.645 1.281.384 4.166-5.593 5.044-10.45.561-3.101.391-3.75-.984-3.75-.959 0-2.29 1.503-3.147 3.555m-137.834 29.1c-.386 1.005.207 2.552 1.507 3.937l2.143 2.281-2.115-.553c-1.162-.304-2.114-.106-2.114.441 0 1.655 2.875 3.501 4.487 2.882 1.944-.746 1.951-4.034.013-5.643-.825-.685-1.464-1.752-1.421-2.372.05-.709.266-.663.583.122.791 1.96 2.338 1.463 2.338-.75 0-2.518-4.478-2.803-5.421-.345m14.028-.073c-.962 2.508-.705 8.239.4 8.922 1.17.724 1.855-.777 2.303-5.049.175-1.675.654-3.588 1.063-4.25.484-.783.061-1.205-1.207-1.205-1.074 0-2.225.712-2.559 1.582m47.393-.189c0 .766-.704 1.663-1.564 1.993-1.077.413-1.466 1.614-1.25 3.857.263 2.724.723 3.257 2.814 3.257 2.311 0 2.523-.397 2.802-5.25.243-4.208-.005-5.25-1.25-5.25-.853 0-1.552.627-1.552 1.393m29-.393c0 .55.45 1 1 1s1-.45 1-1-.45-1-1-1-1 .45-1 1m7 .5c0 .825-.637 1.5-1.417 1.5-.779 0-1.679.563-2 1.25-.466 1-.7 1-1.166 0-.321-.687-.996-1.25-1.5-1.25-1.245 0-1.171 6.725.083 7.5.555.343 1-.397 1-1.663v-2.282l1.557 2.222c.856 1.223 2.431 2.223 3.5 2.223 1.689 0 1.943-.72 1.943-5.5 0-3.025-.45-5.5-1-5.5s-1 .675-1 1.5m24-.5c0 .55.45 1 1 1s1-.45 1-1-.45-1-1-1-1 .45-1 1m-102.325 1.404c-.973 2.535 1.32 8.596 3.252 8.596.918 0 .692-7.19-.276-8.755-1.018-1.647-2.309-1.578-2.976.159m-11.966 1.22c-2.428 2.429.735 8.187 3.842 6.995 2.444-.938 1.545-7.034-1.092-7.411-1.123-.161-2.36.027-2.75.416m17.291.811c0 .789.457 2.638 1.017 4.109.843 2.218 1.269 2.464 2.5 1.442 1.032-.856 1.483-.89 1.483-.108 0 1.901 1.832 1.24 2.433-.878l1.133-3.994c.477-1.682.124-1.963-2.25-1.793-1.549.111-3.147.671-3.551 1.245-.477.677-.74.605-.75-.208-.008-.687-.465-1.25-1.015-1.25-.55 0-1 .646-1 1.435m10.289.564c.288 1.099.094 2.265-.431 2.589-1.404.867 1.031 3.412 3.264 3.412 1.524 0 1.878-.754 1.878-4 0-3.648-.231-4-2.617-4-2.123 0-2.518.376-2.094 1.999M97 179.441c0 3.268 1.831 6.133 2.152 3.368.084-.72.203-1.811.265-2.423.062-.613.724-1.851 1.471-2.75 1.197-1.444 1.049-1.636-1.266-1.636-2.321 0-2.622.394-2.622 3.441m5.766-1.654c-.74 2.83 1 6.405 2.935 6.032 1.762-.339 3.303-4.352 2.524-6.569-.678-1.931-4.923-1.514-5.459.537m19.424 1.963c.244 2.949.728 3.75 2.265 3.75 1.251 0 2.181-.9 2.582-2.5.893-3.559.114-5-2.704-5-2.224 0-2.425.351-2.143 3.75m11.199-1.165c-.43 1.715-.126 3.106.904 4.136 2.423 2.423 4.707.875 4.707-3.19 0-3.093-.308-3.531-2.481-3.531-1.834 0-2.65.674-3.13 2.585m6.964-.835c.269.963.787 2.787 1.153 4.055.898 3.119 2.715 2.281 3.755-1.733.904-3.489.186-5.413-1.19-3.186-.575.929-1.026.995-1.505.221-1.09-1.763-2.749-1.281-2.213.643m17.356-1.126c-2.428 2.429.735 8.187 3.842 6.995 2.444-.938 1.545-7.034-1.092-7.411-1.123-.161-2.36.027-2.75.416m6.291 3.31c0 2.236.45 4.066 1 4.066s1-1.377 1-3.059c0-1.785.417-2.802 1-2.441.55.34 1 1.716 1 3.059 0 1.343.477 2.441 1.06 2.441.614 0 .93-1.579.75-3.75-.269-3.256-.672-3.792-3.06-4.066-2.601-.3-2.75-.097-2.75 3.75m7.667-3.267c-.367.366-.667 1.893-.667 3.393 0 3.163 2.514 4.584 4.789 2.707 1.23-1.014 1.621-1.017 1.959-.011.782 2.323 2.252.158 2.252-3.315 0-3.889-1.488-4.619-2.357-1.156-.658 2.624-4.643 3.522-4.643 1.046 0-.962.566-1.328 1.5-.969.914.35 1.5.001 1.5-.893 0-1.476-3.088-2.048-4.333-.802m10.052.026c-.258.444-.413 2.157-.344 3.807.104 2.51.585 3.053 2.94 3.323 2.696.309 2.801.162 2.5-3.5-.25-3.032-.761-3.887-2.471-4.13-1.185-.169-2.367.056-2.625.5m6.535 3.057c.228 2.973.697 3.75 2.267 3.75 1.583 0 2.021-.75 2.187-3.75.187-3.379-.037-3.75-2.267-3.75-2.245 0-2.448.349-2.187 3.75m-122.175-.167c.048 1.165.285 1.402.604.605.289-.722.253-1.585-.079-1.917-.332-.332-.568.258-.525 1.312m51.079.417c0 1.375.227 1.938.504 1.25.278-.687.278-1.812 0-2.5-.277-.687-.504-.125-.504 1.25m35.921-.417c.048 1.165.285 1.402.604.605.289-.722.253-1.585-.079-1.917-.332-.332-.568.258-.525 1.312" fill="#1976D2" fill-rule="evenodd"/><path fill-opacity=".703" d="M70 68v46h107V22H70v46m2-.009V112h104.021l-.26-43.75-.261-43.75-51.75-.259L72 23.982v44.009M74 68v42h100V26H74v42m50.5-31.913c-7.295.916-10.942 2.25-15.352 5.613-8.155 6.221-8.069 18.369.181 25.478 3.276 2.823 10.489 6.39 21.759 10.76 5.582 2.165 11.221 4.943 12.531 6.173 4.247 3.991 2.475 9.193-4.212 12.366-9.175 4.354-23.029-3.36-32.591-18.145-2.252-3.483-4.369-6.324-4.705-6.314-.336.01-2.833 5.219-5.549 11.575-5.534 12.95-5.653 12.354 2.938 14.8 13.775 3.923 24.163 4.605 33.255 2.184 10.895-2.9 16.248-8.33 16.241-16.475-.005-6.144-2.341-9.76-13.012-20.144-9.491-9.235-11.821-13.683-10.594-20.224 2.246-11.973 13.949-6.331 22.956 11.066 4.983 9.625 4.621 9.777 6.664-2.8.581-3.575 1.292-7.693 1.58-9.151.481-2.425.118-2.784-4.282-4.228-2.645-.868-7.508-1.835-10.808-2.147-3.3-.313-7.125-.698-8.5-.855-1.375-.158-5.2.053-8.5.468m-47.045 93.368c-1.35 1.35-2.455 3.06-2.455 3.8 0 2.001 2.116 3.745 4.545 3.745 4.213 0 7.095-5.96 4.255-8.8-1.816-1.816-3.635-1.456-6.345 1.255M173 129c-2.392 2.392-2.627 6.545-.418 7.393 2.703 1.037 4.344.681 6.418-1.393 2.408-2.408 2.535-4.322.429-6.429-2.107-2.106-4.021-1.979-6.429.429m32.189-1.286c-2.709.517-2.313-.552-5.711 15.406-3.196 15.008-2.759 17.194 3.337 16.686 2.181-.181 3.591-.791 3.455-1.495-.126-.653 1.112-7.513 2.75-15.244 1.639-7.731 2.98-14.509 2.98-15.062 0-1.008-2.498-1.115-6.811-.291m-154.356.994c-4.062.623-7.833 4.639-7.833 8.343 0 4.19 3.936 7.747 12.115 10.949 3.511 1.374 7.172 3.287 8.135 4.25 1.667 1.667 1.75 1.624 1.75-.91 0-1.855-1.648-4.387-5.449-8.372-5.877-6.161-7.364-9.58-5.601-12.875.616-1.151.767-2.026.335-1.943-.432.082-1.985.334-3.452.558m10.046 2.325c1.749 1.748 3.874 4.523 4.724 6.166.849 1.643 1.679 2.833 1.843 2.644.164-.189.602-2.443.975-5.01.746-5.146.89-5.013-6.821-6.319l-3.901-.661 3.18 3.18m16.621 8.843c-3.115.664-3.854 2.333-5.878 13.276-.853 4.609 1.127 6.848 6.056 6.848 2.818 0 3.412-.322 2.927-1.586-.522-1.362.075-4.882 2.913-17.164.561-2.427-.231-2.608-6.018-1.374m15.262.197c-2.419 1.41-3.879 4.46-3.102 6.483.359.935 3.908 3.184 7.888 4.997 3.98 1.814 7.474 3.894 7.765 4.622.307.769.562.455.608-.749.043-1.141-1.496-4.289-3.421-6.997-1.925-2.707-3.5-5.937-3.5-7.176 0-2.479-3.026-3.051-6.238-1.18m10.998 2.801c2.788 3.942 4.194 3.77 4.225-.517.015-2.206-1.718-3.357-5.057-3.357-1.735 0-1.66.352.832 3.874m14.544-1.918c-7.038 4.292-8.951 12.37-3.948 16.674 2.178 1.873 3.844 2.351 7.95 2.28 4.816-.084 4.965-.157 2.052-1.001-4.087-1.184-4.651-3.67-2.819-12.426.804-3.84 1.461-7.095 1.461-7.233 0-.705-1.834-.039-4.696 1.706m9.495 1.128c.312 2.125-.218 3.991-1.703 6-2.394 3.238-1.474 3.68 2.924 1.406 2.794-1.445 4.98-4.234 4.98-6.353 0-1.606-2.996-4.137-4.898-4.137-1.392 0-1.662.638-1.303 3.084m15.412-2.202c-1.809.34-3.33.96-3.379 1.378-.048.418.228 4.806.615 9.75l.703 8.99h9.971l-.607-7.25c-.919-10.994-1.491-13.762-2.809-13.618-.663.072-2.685.41-4.494.75m12.539-.166c-2.745.416-3.573 1.657-1.826 2.737.507.314 1.647 2.749 2.531 5.411 1.23 3.703 1.361 5.522.56 7.738l-1.048 2.898 1.97-2.5c3.861-4.901 5.177-17.262 1.794-16.85-.677.082-2.469.337-3.981.566m17.25.166c-3.489.616-3.504.642-4.939 8.456-1.683 9.163-1.025 11.017 4.062 11.459l3.421.297 1.272-7.797c.7-4.288 1.53-9.035 1.845-10.547.616-2.961.584-2.972-5.661-1.868m15.615 1.206c-1.46 1.149-3.321 3.377-4.135 4.951-1.781 3.444-1.949 11.092-.28 12.761 1.687 1.687 7.31 1.495 8.8-.3.86-1.036.898-1.5.122-1.5-1.782 0-1.27-7.078.851-11.75 1.061-2.338 2.428-4.25 3.037-4.25s.83-.45.49-1c-1.06-1.715-6.107-1.097-8.885 1.088m-148.557 9.798c-1.132 2.219-2.058 4.706-2.058 5.527 0 2.037 6.066 3.579 14 3.559l6.5-.016-4.039-1.834c-2.221-1.009-5.907-3.958-8.191-6.553l-4.153-4.718-2.059 4.035m47.055 3.221c-1.571 4.506-.433 5.284 8.155 5.574 5.611.189 6.481.051 3.883-.613-1.842-.471-5.048-2.515-7.125-4.542l-3.774-3.686-1.139 3.267M57 175.941c0 .518.445 1.216.989 1.552.566.35.734-.051.393-.941-.665-1.732-1.382-2.049-1.382-.611M77.158 177c0 1.375.227 1.938.504 1.25.278-.687.278-1.812 0-2.5-.277-.687-.504-.125-.504 1.25m5.921 4.583c.048 1.165.285 1.402.604.605.289-.722.253-1.585-.079-1.917-.332-.332-.568.258-.525 1.312" fill="#1976D2" fill-rule="evenodd"/><path fill-opacity=".746" d="M207.199 127.986c-1.815.43-3.501.982-3.745 1.227-.819.818-5.678 23.254-5.564 25.686.159 3.402 1.902 5.101 5.232 5.101 2.544 0 2.878-.356 2.878-3.06 0-2.493 2.269-13.899 5.509-27.69.571-2.429.589-2.424-4.31-1.264m-129.628 1.585c-1.992 1.993-2.03 5.316-.069 6.068 2.278.874 6.198-.414 6.91-2.271 1.739-4.53-3.307-7.33-6.841-3.797m94.882.861c-2.2 3.358-1.25 5.568 2.393 5.568 3.477 0 5.429-2.035 4.981-5.195-.494-3.48-5.183-3.717-7.374-.373m-123.988-.48c-2.642 1.07-4.149 2.94-4.953 6.145-1.004 4.001 3.075 8.033 11.45 11.319 3.902 1.53 7.756 3.445 8.566 4.255 1.144 1.143 1.471 1.177 1.468.15-.006-2.065-3.71-7.628-6.021-9.043-3.352-2.051-6.244-7.489-5.756-10.82.465-3.162-.695-3.652-4.754-2.006m14.799 3.407c1.78 2.397 3.574 4.171 3.986 3.941.412-.23.75-1.914.75-3.742 0-2.603-.489-3.456-2.25-3.928-5.47-1.466-5.883-.847-2.486 3.729m13.119 7.329c-1.785.351-2.322 1.607-3.414 7.993-1.483 8.672-.831 10.66 3.649 11.115 2.886.293 2.929.221 4.158-7 .683-4.013 1.515-8.534 1.85-10.046.534-2.419.322-2.734-1.759-2.614-1.302.075-3.32.324-4.484.552m15.188.883c-1.904 1.905-2.035 4.799-.282 6.254.708.588 4.316 2.427 8.016 4.088 6.462 2.899 6.682 2.931 5.556.803-.645-1.219-2.253-3.641-3.573-5.384-1.32-1.742-2.47-4.105-2.557-5.25-.194-2.572-4.771-2.899-7.16-.511m12.36.179c2.659 4.645 3.038 4.831 3.054 1.5.012-2.607-.388-3.25-2.02-3.25-1.653 0-1.847.328-1.034 1.75m13.832-.185c-4.501 2.442-6.972 9.12-5.142 13.89.767 1.999 5.52 4.545 8.484 4.545 2.136 0 2.149-.062.409-1.985-1.818-2.008-1.802-5.816.06-14.765.751-3.609.191-3.856-3.811-1.685m10.586-.097c.347.904-.016 3.194-.808 5.088-1.658 3.969-.914 4.312 2.879 1.328 3.479-2.737 3.299-7.212-.311-7.722-1.873-.265-2.254.018-1.76 1.306m13.361-.771c-1.561.406-1.716 1.256-1.203 6.634 1.236 12.955 1.111 12.669 5.538 12.669 3.797 0 3.955-.13 3.948-3.25-.004-1.787-.294-6.287-.645-10-.612-6.483-.74-6.745-3.243-6.634-1.433.064-3.411.325-4.395.581m13.042-.116c-.32.32.27 2.458 1.311 4.75 1.041 2.293 1.94 5.519 1.996 7.169l.103 3 1.374-3c.756-1.65 1.394-5.137 1.419-7.75.043-4.56-.069-4.75-2.788-4.75-1.559 0-3.095.262-3.415.581m17.094.09c-1.126.299-2.163 2.695-3.25 7.506-.878 3.888-1.596 7.431-1.596 7.874 0 1.593 3.187 3.949 5.342 3.949 1.984 0 2.398-.979 4.225-10l2.026-10-2.547.116c-1.4.064-3.29.313-4.2.555m16.809.462c-2.391 1.39-5.605 8.501-5.633 12.462-.034 4.783 3.913 7.518 8.378 5.805 1.202-.461 1.327-1.042.539-2.514-1.728-3.229 1.246-14 4.451-16.121 1.773-1.173-5.695-.818-7.735.368M40.68 150.741c-.897 2.068-1.754 4.399-1.905 5.181-.376 1.945 6.354 3.93 13.225 3.901 3.376-.014 4.628-.274 3.243-.673-3.161-.91-9.065-5.809-11.166-9.264l-1.766-2.903-1.631 3.758m46.649 4.199c-1.046 2.771-.935 3.002 1.93 4 1.672.583 4.435 1.058 6.14 1.056l3.101-.003-3.222-1.965c-1.771-1.08-3.792-2.878-4.49-3.996-1.683-2.695-2.145-2.574-3.459.908" fill="#1976D2" fill-rule="evenodd"/></svg>